<svg xmlns="http://www.w3.org/2000/svg" width="1200" height="630" viewBox="0 0 1200 630">
  <defs>
    <linearGradient id="bg" x1="0" x2="1" y1="0" y2="1">
      <stop offset="0" stop-color="#07090d"/>
      <stop offset="1" stop-color="#111720"/>
    </linearGradient>
    <linearGradient id="accent" x1="0" x2="1">
      <stop offset="0" stop-color="#58c7b3"/>
      <stop offset="1" stop-color="#d6b36a"/>
    </linearGradient>
  </defs>
  <rect width="1200" height="630" fill="url(#bg)"/>
  <g opacity=".18" stroke="#ffffff">
    <path d="M0 80h1200M0 160h1200M0 240h1200M0 320h1200M0 400h1200M0 480h1200M0 560h1200"/>
    <path d="M80 0v630M160 0v630M240 0v630M320 0v630M400 0v630M480 0v630M560 0v630M640 0v630M720 0v630M800 0v630M880 0v630M960 0v630M1040 0v630M1120 0v630"/>
  </g>
  <rect x="86" y="82" width="58" height="58" rx="13" fill="#0d1118" stroke="#58c7b3" stroke-width="4"/>
  <path d="M101 113l12 12 25-32" fill="none" stroke="#d6b36a" stroke-width="7" stroke-linecap="round" stroke-linejoin="round"/>
  <text x="166" y="122" fill="#f6f8fb" font-family="Inter, Arial, sans-serif" font-size="34" font-weight="800" letter-spacing="4">EVOLVR</text>
  <text x="86" y="285" fill="#f6f8fb" font-family="Inter, Arial, sans-serif" font-size="76" font-weight="800">Turn LLM failures</text>
  <text x="86" y="372" fill="#f6f8fb" font-family="Inter, Arial, sans-serif" font-size="76" font-weight="800">into shippable fixes.</text>
  <text x="90" y="455" fill="#a3adba" font-family="Inter, Arial, sans-serif" font-size="28">Failure maps. Targeted data. Verified lift.</text>
  <rect x="780" y="168" width="330" height="250" rx="14" fill="#0d1118" stroke="#223042" stroke-width="2"/>
  <rect x="812" y="210" width="116" height="116" rx="10" fill="#07090d" stroke="#223042"/>
  <rect x="962" y="210" width="116" height="116" rx="10" fill="#07090d" stroke="#223042"/>
  <text x="836" y="282" fill="#f6f8fb" font-family="Inter, Arial, sans-serif" font-size="42" font-weight="800">43%</text>
  <text x="986" y="282" fill="#58c7b3" font-family="Inter, Arial, sans-serif" font-size="42" font-weight="800">89%</text>
  <rect x="812" y="352" width="266" height="24" rx="6" fill="url(#accent)" opacity=".75"/>
</svg>
